<svg xmlns="http://www.w3.org/2000/svg" width="2000" height="2000" preserveAspectRatio="xMidYMid slice" xmlns:v="https://vecta.io/nano"><style><![CDATA[.B{stroke-opacity:.9}.C{stroke-opacity:.28}.D{clip-path:url(#F)}.E{stroke-opacity:.22}.F{filter:url(#D)}.G{stroke-linecap:round}.H{stroke-linejoin:round}.I{stroke-opacity:.78}.J{opacity:.95}]]></style><defs><linearGradient id="A" x1="0" y1="0" x2="1" y2="1"><stop offset="0" stop-color="#071a36"/><stop offset="1" stop-color="#0b2b4c"/></linearGradient><linearGradient id="B" x1="0" y1="0" x2="1" y2="1"><stop offset="0" stop-color="#ff2fa6"/><stop offset=".45" stop-color="#8b33d6"/><stop offset="1" stop-color="#15d4e6"/></linearGradient><filter id="C" x="-50%" y="-50%" width="200%" height="200%"><feGaussianBlur stdDeviation="8" result="A"/><feMerge><feMergeNode in="A"/><feMergeNode in="SourceGraphic"/></feMerge></filter><filter id="D" x="-50%" y="-50%" width="200%" height="200%"><feGaussianBlur stdDeviation=".8" result="A"/><feMerge><feMergeNode in="A"/><feMergeNode in="SourceGraphic"/></feMerge></filter><pattern id="E" patternUnits="userSpaceOnUse" width="200" height="200"><path d="M0 0h200" stroke="#06283c" stroke-opacity=".03" stroke-width="2"/></pattern><clipPath id="F"><rect width="2000" height="2000" rx="8"/></clipPath><path id="G" d="M0 0h2000v2000H0z"/><path id="H" d="M1280 1480c-80 80-180 140-380 210"/></defs><use href="#G" fill="url(#A)" class="D"/><use href="#G" fill="url(#E)" opacity=".22" class="D"/><radialGradient id="I" cx="NaN" cy="NaN" r="80%"><stop offset="0" stop-opacity="0"/><stop offset="1" stop-opacity=".2"/></radialGradient><use href="#G" fill="url(#I)"/><g fill="none"><g class="D"><path d="M1450 190c200 230-100 510 150 730 230 190-200 450-100 680s-300 270-600 50c-200-150-150-400 0-550 200-200 300-500 550-910z" fill="url(#B)" opacity=".06"/><g stroke="url(#B)" class="G H"><g stroke-width="2" class="F B"><path d="M1500 200 C1640 430, 1380 670, 1600 900"/><path d="M1460 240 C1600 470, 1340 710, 1560 940" opacity=".92"/><path d="M1420 280 C1560 510, 1300 750, 1520 980" opacity=".86"/><path d="M1380 320 C1520 550, 1260 790, 1480 1020" opacity=".8"/></g><g stroke-width="1.2" class="F I"><path d="M1520 900 C1460 1020, 1340 1180, 1200 1400"/><path d="M1560 940 C1500 1060, 1380 1220, 1240 1440" opacity=".92"/><path d="M1600 980 C1540 1100, 1420 1260, 1280 1480" opacity=".8"/><path d="M1640 1020 C1580 1140, 1460 1300, 1320 1520" opacity=".64"/></g></g><g stroke="#15d4e6" stroke-width="1.6" class="F G H B"><use href="#H"/><path d="M1320 1520c-80 80-180 140-380 210" opacity=".82"/><path d="M1360 1560c-80 80-180 140-380 210" opacity=".7"/></g><g stroke="url(#B)" stroke-width=".6" class="G H C"><path d="M1500 220 C1550 300, 1420 480, 1460 680"/><path d="M1520 240 C1570 320, 1440 500, 1480 700"/><path d="M1540 260 C1590 340, 1460 520, 1500 720"/><path d="M1560 280 C1610 360, 1480 540, 1520 740"/><path d="M1580 300 C1630 380, 1500 560, 1540 760"/><path d="M1600 320 C1650 400, 1520 580, 1560 780"/></g></g><g stroke="#12b4e0" class="D F"><path d="M220 1400l100-80 100 80 100-140 80 60 100-70" stroke-opacity=".35"/><path d="M280 1520l80-90 120 50 80-110 140 50" stroke-opacity=".24"/><path d="M120 1520l80-70 80 70 140 60 100-80" stroke-opacity=".18"/><path d="M420 1400l60 100 100 30 100-50" stroke-opacity=".12"/><path d="M240 1460l70-80" class="E"/><path d="M320 1320l90 80" class="E"/><path d="M420 1400l100-140" class="E"/><path d="M520 1260l80 60" class="E"/><path d="M600 1320l100-70" class="E"/><g filter="url(#C)" fill="#12b4e0" class="B"><circle cx="220" cy="1520" r="6" class="J"/><circle cx="320" cy="1320" r="9" opacity=".98"/><circle cx="420" cy="1400" r="7" class="J"/><circle cx="520" cy="1260" r="6" opacity=".9"/><circle cx="700" cy="1250" r="5" opacity=".9"/><circle cx="600" cy="1320" r="5.5" opacity=".9"/><circle cx="480" cy="1480" r="5" opacity=".7"/><circle cx="280" cy="1520" r="4.5" opacity=".6"/></g></g></g><g filter="url(#C)" fill="#ff2fa6" class="D J"><circle cx="1580" cy="220" r="5"/><circle cx="1490" cy="300" r="6.5" class="J"/><circle cx="1460" cy="390" r="4.5" opacity=".85"/><circle cx="1520" cy="740" r="4" opacity=".7"/><circle cx="1420" cy="980" r="3.4" opacity=".6"/><circle cx="1500" cy="1080" r="3.6" opacity=".55"/><circle cx="1360" cy="1260" r="3.2" opacity=".45"/></g><g opacity=".28" fill="#a96aff"><circle cx="1520" cy="830" r="2"/><circle cx="1380" cy="1060" r="1.6"/><circle cx="1260" cy="1400" r="1.2"/><circle cx="1480" cy="980" r="1.8"/><g fill="#12b4e0"><circle cx="940" cy="1700" r="2.2"/><circle cx="580" cy="1560" r="1.3"/></g></g><path d="M0 200L2000 0M0 400l2000-200M0 600l2000-200M0 800l2000-200M0 1000l2000-200M0 1200l2000-200M0 1400l2000-200M0 1600l2000-200" stroke-opacity=".06" stroke="#0f3b57"/><radialGradient id="J" cx=".78" cy=".16" r=".48"><stop offset="0" stop-color="#fff" stop-opacity=".06"/><stop offset="1" stop-color="#fff" stop-opacity="0"/></radialGradient><ellipse cx="1500" cy="400" rx="560" ry="420" fill="url(#J)" opacity=".6"/><rect x="8" y="8" width="1984" height="1984" rx="6" fill="none" stroke="#071a36" stroke-opacity=".14"/></svg>